<mxfile host="app.diagrams.net" modified="2023-04-19T13:05:12.688Z" agent="Mozilla/5.0 (Windows NT 10.0; Win64; x64) AppleWebKit/537.36 (KHTML, like Gecko) Chrome/112.0.0.0 Safari/537.36" etag="MJX0vIKkbn_eqL6JQ_G7" version="21.1.8" type="device">
  <diagram name="Page-1" id="x7Fau0vDh0JjR-PrWWRc">
    <mxGraphModel dx="1509" dy="1973" grid="1" gridSize="10" guides="1" tooltips="1" connect="1" arrows="1" fold="1" page="1" pageScale="1" pageWidth="827" pageHeight="1169" math="0" shadow="0">
      <root>
        <mxCell id="0" />
        <mxCell id="1" parent="0" />
        <mxCell id="JKUWYTQ45FSb9EKCrrsS-1" value="" style="shape=image;verticalLabelPosition=bottom;labelBackgroundColor=default;verticalAlign=top;aspect=fixed;imageAspect=0;image=data:image/png,iVBORw0KGgoAAAANSUhEUgAAAP8AAACSCAYAAACKYhxOAAAZqElEQVR4nO2dcWhb173HPx57IEPKZEjhGlpiBRcm0zArrGAZyhKF/GEFD+rgB5HIssztH62zrVROoHWa2nn2Bp6SjCzug81ewguSoSFK94YdaPF1Sh5yocHy6LAGKZZHChK0II0EJGjYeX9Ijm1FsmRHuleJfh8QyLpH9/780/nec+455/c7DUophSAIdcf3zDZAEARzEPELQp0i4heEOkXELwh1iohfEOoUEX+Fefvtt2lpaSGVSpltilBHpFIprFYrQ0NDZX+nQab6KsfKygo2m43Lly/z85//3GxzhDrjypUrHD9+nFgsRktLS8nyIv4Ksm/fPgBu3bq1tS8+SJF6uPqHBavVsvWLPwS+v/WvbYVMKkVm9Q+Lle2Yafr1DfBTuVTDn/v27aOpqYkbN26ULqyEihCJRBSg5ubmyv5O8suA8nXZFLDx1epWvuCSSpc8Q1rF5wNq5Ihdab0BFX+Sf2AzO7+4pDwva3l22pT75HW1/F2VLrp2dRW+2K/crXk+QlP2IyPq+pfJ0qf4ZklN584xMl9te0tTTX/euHFDASoSiZQsK+KvEMeOHVO7du0qs3RaLf3Ro7TcD2/r6leDY37lH/Mr33GnsuU+d747qwpV7fS9sAqc9Si7tq7yVEn86fkR5cyJzfXGoJoITavARZ/qyYlRO3q9ajcdlV5WE0dzItHsynMy6yP/2KDqf3TTtKm+j5Yf/+53SbU0c2lduezLbPEb4c9du3apY8eOlSwn4q8AyWRSAerChQtllU9/4ssKX3OpkdsF5B0LKI+WrSCejzZWhYXfrGsxWp2qr9ddRfEvq4munB3BPIHdD6uRjuyxQb10H2U7LJx3Zv+3jhEVLuCm5CeDOSH1qMC9dQfi15VnfQ+h26Pc7bUgfmP8+cEHH6hyOvUi/gqwla6WUgvK315Y2OtJhvqylbfdrxbWfR4+a1PuN/0qMB/PPhbMj1RP/HcnlKuADY/ZeHK2jEeUrbLqJ5Tvk2JnT6vZd7M3Q8f5dRbeCyjPyx7l+/O0WvpGKaXiKtBbA+I3yJ+rj6A3btzYtJxM9VWAW7du8YMf/ID29vbShT+fwb8ItA8w0KsVLWbt8uADWJxh4au1z53vLzP9oQ9Ph0a1x9sSER0doLsTRyEb9zhxAXwaIVrxq2fILGbfNT1X7D+10Ob04jrooike59Hk6gseAl8G8B93Y99ZccO2jVH+XK2Hi4uLm5arkXHPp5vFxcXyhA9E5q+TgKIV4BGWvfTps7iBZuuT27gd4l9nq6DrxSI3qZ3N2AF9Mbk2al0xbNh6gWswfTvCYEdhb2ndfma7K37xqmCkP3/yk5+UnHWSlr8CrKyslDWvCpBJRgDoeal4q5/Fin2/C9d+l2mtV+ZB1lbrjsbCBaxNNAMQJfZ1pa+u4T7ajwbMn3Jz4J0gkW8rfQ1jMdKfVquVf/3rX5uWEfFXgH/+859lij9B7B+5t98vUgGER1i7/eh/7sNGAv2Cl73PN9P20xOcm9KJPuU3gmrT3t5estsv4hdqGAv24xMsx2e59KYbGwmifx1nwHOAtuebafOMEvq7LKPeLiL+CvG974krq4bmov/DaZbTSZb0AP7VG8HUaQ7v2cvr12JmW1hzNDQ0lCwjNdZQNGw/zL19mDbVkqcSixX7fg++D6dZTseZ/Y0bjRiT/+ll9E7lhxyfdUT8BqO96AIg9GWsxIhuiuicjj5n3vOtpmVtTT0ocqNKxFkCYC+2F4yyKodFw/XudQInNWCe0x+FqzDjUFlqzZ8ifoOx7XGhAVydJ7JZwVSYcdcBDrhGCZv0WNuk2QHQ7xa5UT1IZqctD2qUmrvYKompwzQ0NNBwSt9E1BbaHJ3ZtysJav3p30x/FkLEbzQdbgY6gMRp/FeLP6um5kKMA3R5cLUaZdxGrHYHboCrOuECtTV2O4QOaK+2YavwtTXb3txNcobwg+Ll0g9ykt9prfqipyfFTH8WQsRvOA76L4zgBEI/8zL6f4+3V6m/T9L/1iSg0f/mYUMqQkFaD+HtBRKjnLuct+YspTN5cQZwMNDtrPy1Ozyc6wUS5/C+NUm0QLOe+cckp8/ogEZ/VycmrYUqHzP9WQBZ4WcClo5BAsElOj1BTr/axGRHHz09dpqJE705w/RclAQart+E8HebWaU1PGMBpm97Cb7Vxu45H/2vNMP9GPrUODNfgfPsOP3lLW7cIjY8H86y9K2X0auv03Z1FGevG9crNpo2+Amcv5zEZ6qfysVMfxbgCeIHhByAGh4e3vL3isXz27r61SW9zDCdagb25EhHC9ip2ZVnLFww5LiifBdX4eBIgfh3lK2jT/lnlssIgqmRwJ4cRvhzaGioZGSfZPKpAA0NDQwPD3PmzJntnSCTIrX6DGhChpyyWZdxyGI14Rl7fcajWvZTuVTRn8PDwwwNDbGZvKXbXws8LRV5h9Xc52qzr19pTP5/ZMBPEOoUEb8g1CkifkGoU0T8glCniPgFoU4R8QtCnSLiF4Q6RcQvCHWKiF8Q6hQRvyDUKSJ+QahTRPyCUKeI+AWhThHxC0KdIuIXhDpFxC8IdYok86gBMqnUWirn7Sb2eEjVf82K2Fk5a0il1qXArWG/FcNsf0rLbxop5v9wgkMvNdDY1ETT6qtxC3vQfRtlJneO0TtVtPTOON49zXl27ubQqRCxh6W/X1EeJtB/56WtuXHNlkd+O8d8ORucGOS3YtSMPyuUL7CuYasJPNPLauKotpa48aRf+cf8yj82qPofJXa0qb6Plh//7ndJtTRzaV256iamTM+PKCco0JTrjUE1EZpWgYs+1dOava529HrVEoc+xjezarCDx/32fr9yryb41Dxq4m6BlJ4G+60YRvmznASeIv4KsFXxL5x3Zitfx4gKF0jXmvxkMFdBelTg3roD8evK86jiasre7VHu9mpW4mU10ZW9lieYdyO6H1YjHdljg3rp/LmVswVlOx5Qy9/lH0+q8Nk1vy6sN8lwvxXDOH+K+A1ia+JfUP5cxfN9UuxHTqvZd7MtmeP8wtrH9wLK87JH+f48rZa+UarqKanvTigXKNr9aqHA4WSoLyuok7NlpM9+Mh5dK1/YG1jzbf//rrurGu23Yhjoz3LEL8/8hpMhs5h91/RcsREeC21OL66DLpri8bU96F7wEPgygP+4G/vO6luaiOjoAN2dOAoct+5x4gL4NEK0wPEKWsLM1CQAfaf6cRQdGHPQ81Z2M8zx2wtrg2kG+60YtePPLDLabzg2bL3ANZi+HWGwo1A1AK3bz2y3sZblE/86WwVdLxbZNnJnM3ZAX0xWd4fc1ALhawA9uBybJ7tu7vIzqyfhubZqWrQtasafOaTlNxwN99F+NGD+lJsD7wSJmLQFdykyD7L7CFt3NBYuYG2iGYAosa+raEgqRRwAO7aWzYtaXnDg2u/C9WOt5jburBl/5hDxm4C124/+5z5sJNAveNn7fDNtPz3BuSmdaI3eCEwlESMEQBHRCNtCxG8KFuzHJ1iOz3LpTTc2EkT/Os6A5wBtz29hnv8ZIpNKkcp/bbI1t/DkiPjNRHPR/+E0y+kkS3oA/+qNYOo0h/fs5fVrMbMtNIh5zq1f8LL6ujBvtmHPNDLgVwtYrNj3e7Dv9+A7n0C/0If3vRkm/9OL7QudwR/X2tNrpdFwjPnx53/8w9zAmGajBwiRNtiuZxsRf61h0XC9e51A0saB381z+qMwvh+7TBm80jQXoJN6UER0iThLAOzF9sKTXMmG+6QPd3FDsAEwz9JX4GwtfqbM1xHCd7Oj/Z01NuhnnD/LQ7r9BpOYOkxDQwMNp/RNpnMstDk6s29XEpj19N+k2QHQ78YK2/ogSQLgoEaRyavKYGljby+AzswXiU2LRq/1ccB1gAMfLVXTom1RM/7MIeI3GM22N/vDXp0hvMmAVvpBTvI7K7tv+1aw2h3Z1viqTrhAbY3dDqED2qttuZa5WqxNj4bGLjFf1G8R9P+JABqDXZ011epDLfkzi4jfaDo8nOsFEufwvjVJtECznvnHJKfP6IBGf1eneXu4tx7C2wskRjl3OW/NWUpn8uIM4GCg21l1U6zdPs4d1WBxlJ63go9Hvz1MMPNePwOLQMcAh/fXmvSpKX+CGc/8mRRrYdgWrNsJYjYxBvvJseH5cJalb72MXn2dtqujOHvduF6x0USc6M0ZpueiJADnLyfxdZsmfUDDMxZg+raX4Ftt7J7z0f9KM9yPoU+NM/MVOM+O099uhC02PB+GiN3t5PRVL7s/HcH9Wg8uWxPJWBj90xDzXwGtfVyf8hVcPms+teRPygvpjQd7NoRBlvXqDWwMTfxuWV0/6Va2vHLayx516YsCoW35pOMqHBxRnpc11RM0LIi0LNhqSK9SSn239v/k+87W0af8M8tlBHcYE6CSjgaULy8UFs2uPGNhVcYvV1m+i6vZMY+yazxuz9nraqksg0wK7MlhhD/LCexpUEqpUjeIxF8H8P4hkvdpmtin88QAW4cL23N5h1/2ETjvzg1cxAj+rBPv1QS09uD71WFcL6QJ3wwy+SedBE5GCk5pZUh8HmLy4giXprKtIUBPMM71I0YMiZRHQ0MDw8PDnDlzZnsneJAitdqNNT1Dziass9NiNW8sYpW1TDjb7EGaTRX9OTw8zNDQEJvKe/v3lrAaKTMhQlofVNpq/Pr9jceWg57ssa4JtTHCeUGNaBtbw55cPPcz0fILQhWpkZDeDOGboyTIhmM6d2w8ajsywEA7cDOI/tXG77HDTf9YgPC9NMvzEwwYMw4iCHWBAcNmUeavQvFwTDuOg8CiTiSagtbVMk4G705X3zxBqFOqL/5UnHgCwIZW8DHdQlOzA4gQTyWhKhNbGRJ3wizdL1GsBleFCUK1qL74H6zGYjfRWERVzZoNiBBaSUBVljek0McO4L1WolhvgPhHHkNWVwmC2Ty1s+Vbw4rr1Cyzb5Yo9lybeQtqBMFg6kT8FrQfu6RFF4R1yPJeQahT6qTlTzF/eZJwqRRZOzvpO+6Urr9QF1Rf/DtXY7GTpDNQaCg9vhIGoKe1WrFMGWI3BxgoY8DPe1wWEwj1QfXFb2miuR1YjGQzkj6WiCFDMplduGvbWa02Vwb8BCEfA7r9dhxdGizqhG7H6Mtv3TNh9NwioL32as2wy4CfIORjwICfhc6fnsABzLw3zkxe/HpsapzRBHDci9uA1EWCIGQxZMDP0uFj/Ow0nWfOccgeoe8NN/bnIB6ZJDAVBc1D4EyPdLkFwUAMGu234Hx/hrCln77zQSb/S390xNblI3B+BE+JnVgEQagsTyB+J4NKMVh2eSvOkwGWTk6SWk3l830r1h2bf2vDFd9XqPe3aKYgCAUxYZ7/KU28IAjPGHWyyOcppRL5DqtFTeVRzKz1JgHLDiuWmrHtCamin2V5by3yMEbo1CF2N67fvqqR5j1exu+YuIdfJsH81CjePc0cvrZ5/nyjiN0Y4NBLjRu2+Wp8sQ3vHyKm7XdQCVL/mGH8rUPs/o9RqrVp2bNyf3yGiBH8RbF8h0FOvBIjZegWXkXyKBp09c2ITXnp9ARJYKPnpI/D+5tJz88Q/NMkwV/tJfZgAf1dx9OTn+HbKDNT44xfzGbyzdJZvesZlFLsmYYK5vDbXr7DalHDeRTTs2pQQ4FTjczn5TmOBZRHQ4FbTdw1x7ytEv/IsyGTr/uIWzlAwYgKb+N8NZLDTyif7eY7rJ49tZpHMXN7Jrc4bID+jry2vcXDwDsOYIbg3FOy0/FDsB/xMTGzRPLeEtNj3qrv2iPd/ppiu/kOq0Xt5lGM3gkA0LPfUXBxmL3dBUTQI1FS2ExZQJb4PMjkHyfRv1hCz9hwOfbiPtJP32v2x+zRjgRYOmKsfdLy1xJl5zskl++wXkkRv5cLBtOaC5awPN+c3bUnkcJ4T8UI/WI3zU4vpy8vEX++DdfOBPq1cQZ62rD/LEgt9EdE/LVE2fkOyeU7rFcypHK5GZqeK+Konc3ZbvONGEZ7KnLBy+HLMbSjEywl4yzps8zOL6Pi0wx2QOKql9Eb5s9FiPgFoaJEWfiiEdfBHkZO9WFf37/X3Jz4VXaeZHJ+YZMt2o1BnvkFoaLY6QvO0lfkqGbbC4RgJUEKTA0zF/ELQpXIfB1Bvx0m+vW6Nj4WNs+gPET8glBpHsYInXqd/gt6dryh1YnL1pg9dr8WhvqyiPhriZrId/g0YEXLhYAn7xdxVCJGGKDXVvX58o1k0N/r5PCFBM5fBpg548Gxc93hz0dpcJ421KJiyIBfLbGa75BcvsPHMCLf4dPA2pRnZCVesEQmmcy2ui2asXP8KZ3Q7xKAj5GxPOHXGCL+miKX75BsvsPHMCTf4dOBvd2NBug39AJz5hnCc7lFQI42Y9f2l5iuzSQL36zMQMRfU0i+w3KxOA9xoh24eZrxm3mOWgkw/tsE0If3oMHj6TusZJcdXWd6bqNdqb9P0veLcWPt2QR55q8xJN9hmVic+P57hGnnac657UTe6MP9UhN8s8Dk1SBRNDzBQXqM7nZb3fSddzL+zjyjLjuh7sP0vGohEQox+XkMTdOABKTSpA027TG2F4MkrIcKRvVlSarwmEfZ10XUAcrW5VOBaLr016tI+GyNRPXlSN72K8/L2gY/0epWvuCSMs9TSbVwMe/30+zKMxZWyVhA9YCCPnX9m01OcW+1XPWi+hqUUsqk+84zQ0NDA8PDw5w5c6bCZ85sO99hvZFJpXIr5mop49Ha72exWg0dexgeHmZoaIjN5C3d/pqmlipybWO0uMqjtn8/GfAThDpFxC8IdYqIXxDqFBG/INQpIn5BqFNE/IJQp4j4BaFOEfELQp0i4heEOkXELwh1iohfEOoUEb8g1CkifkGoU0T8glCniPgFoU4R8QtCnSLJPGqZTIrUo81ezE8MsZYtB7BYqZ08FesyHgGWHVYsT1vNfojhapSWvxZ5GCN06hC7G5toalp9NdK8x8v4HeN3d03dGce7p5nGpnX2NO7m0KkQsYeGm7OB2I0BDr3UuM5PTTS+2Ib3DxHM3we3BJkE81OjePc0c/iaCbsubyM3oJAHFU3guawCR3MJKVt7lO9iQE2HJtTgGy6lgQKnGvnCuNSU6fkR5QQFmnK9MagmQtMqcNGnelqziSm1o9eVWak8l4OenE9squfkJRWYua4m3u9TrlziTOdvFkxM4lmMtIrPB9TIEXvO9uokRC0ngaeIvwJUUvxpfTBbKTpGVPj+xmOPKnvXhFquyNVKsawmurLC9wTzrng/rEY6sscGdRMklp5Vg1ruZjifd/1YQHk0FLjVxF3jTSvOghpZl9HX1tGnerrME790+2uKDOGboySAvlP9OPOy9dqODDDQDtwMon9lgDlf6QRvAu0DDBzJ2/Fuh5P+U31AgtGbYcP3ms/cnsltYDJAf0fe4EOLh4F3HMAMwbna2RgTMrDDTf9YgPC9NMvzEww4zbNGxF9TRJnPbcflchTalsOO4yCATiRa/SfaRERHB+juxFHguHWPExfApxGiVbdmI9E7ue249jsKbmBib3cBoEeiNfTs72Tw7jSXTnpwvmD+aKmIv5ZIxYknAGxoBXeZWtugMp5KVt2c+NdZSbteLLLl1c5m7ACLSYNb/hTxe7kNS7XmgiUszzdnb1iJFNX31NOJiL+WKLHJI0Czlu1+h1aqPzqceRABwLqjsXABa1NuX7pokV2Fq0WG1LfZd03PFXHUzubs1tw3Ypgwjv5UIOIXhDpFxC8IdYqIv0L8+9//NtsEQXiEKmMLThG/INQpIv4KsGvXLlZWVp78RDu17CAVSdJFhs/jK2EAelpthQtUEE3LTpelHhTZST4RZwmAvdheqLo567CitWTfJe8XcVQiRhig10b1PVV7LC4u8qMf/WjTMiL+CtDS0lIZ8VuaaG4HiBQZPc+QTOamuHYWmt2uLE2aHQD9bqzwVN6DZHYk/aBGkcnAKrE25RlZiRcskUnmbGvRCq4DeNZJpVJYrZv/5yL+CrBv3z4+++yzCpzJjqNLA3RCtwusTMuE0XOLgPbaq79IxGp34Aa4qhMuoP7Y7RA6oL3aZnjram93owH6DZ3HPZUhPJdbBORoq8Gtu6vPZ599xr59+zYtI+KvAO3t7UC2q/VkWOj86QkcwMx748zkLU2LTY3nlrR6cRvRzW49hLcXSIxy7nLeGr6UzuTFGcDBQLfxa1QtzkOcaAdunmb8Zp6jVgKM/zYB9OE9aGyfpBZYrYer9bIoFY0mqFOSyaQC1IULFypwtrQKn3Vmgz80l+p736/8Y37lW40C0zwqEKvAZcrlUZAMytbrU/4xv/K/36/cuag+59mwaZFz+RGH/jG/8p/0KLtWJBipBgmfrXxgzwcffFAyqEcpieqrGMeOHVMtLS0VOltShcdWK/G6KLAunwpEjZdaOhpQvi7bBlvQ7MozFlZJw63ZSPK2X3le1jba1upWvuBSDYbzPk41xL9r1y517NixkuUalCpjQlAoyeLiIg6Hg7m5uZLPWuWzLkPN961Yd2xeuuo8SJHKJe+wWK019Sy9lmXI/IxHZvLxxx/z2muvEYlESnb7RfwVZN++fTQ0NDA3N2e2KUKd0t7eTktLCx9//HHJsjLgV0GuXLnCrVu3uHLlitmmCHXIlStX+Nvf/sbvf//7sspLy19h3n77bf7yl78QiURKzrMKQqVIpVLYbDZ+/etfMzQ0VNZ3RPyCUKdIt18Q6hQRvyDUKSJ+QahTRPyCUKeI+AWhThHxC0KdIuIXhDrl/wG54UI08irxlQAAAABJRU5ErkJggg==;" parent="1" vertex="1">
          <mxGeometry x="85" y="498.5" width="255" height="146" as="geometry" />
        </mxCell>
        <mxCell id="JKUWYTQ45FSb9EKCrrsS-2" value="" style="shape=image;verticalLabelPosition=bottom;labelBackgroundColor=default;verticalAlign=top;aspect=fixed;imageAspect=0;image=data:image/png,iVBORw0KGgoAAAANSUhEUgAAARsAAACPCAYAAADKrX/AAAAdT0lEQVR4nO2df2gbV7bHv1q64EDDypAHIygkE/zgybSsFfaBZV5pOsEPrNBdqpAFS+Rl89w8yDpluysn0DpxbVduwaumS9beB31OGhokQxYr3V2sQIrklCxSoMXK0sUqtFheWtBAAhLEIEHCnveHfloa/fRoNErPBwSyde/Mmbkz37n3zrnnGIiIwDAM02Z+0GkDGIb5fsBiwzCMJrDYMAyjCSw2DMNoAosNwzCawGLDMIwmsNi0gTfeeAMHDhxAKpXqtCkM0zZSqRSMRiOmp6cbKm9gPxt12dragiiK+Oijj/CLX/yi0+YwTFu5du0aTp06hXg8jgMHDtQsy2KjMocPHwYA3Llzp7mK2ymknuT/6IHR2NN8vWeMMD7b3G7VJJNKIZP/o8eIxg4hg1SqUAs9RiMaPPLWyKRQ3F0T51lLdtOmHbiODh8+jN7eXty8ebN2QWJUIxqNEgBaW1truE7ySy+5RkQCsPPTZyOXb4PSTdYTR1zkjVWr1Q6SFL48Tra+MvshkHnUTStfJpWrPU5QcN5BZqGsnmAmx3yYqtRqncebtHLORmLZ+RKed9DC56rvrSV206advI5u3rxJACgajdYsx2KjIidPnqT9+/c3WDpNGx86SCg07jhNznvIM+8h1ylr4aawvhmsuPHSETdZCze0izxXV2jl6iSNFy4aK7k/10Bw0pu0dEIoisS5rP2e+VJbRBq7sVlWcZO8+Xp9Nhq/uEBev5cWzhXFRzixQgnVDC3dn51cl7206l+iydNS7vxrdL5q0Hqb6uM62r9/P508ebJmGRYblUgmkwSAPvjgg4bKp2+7sheIIJH7rsKTNe4lh5C9EBw3Sm67dJAmBRBgIVegvF6Sghct2QvluFfFm1WZ9UvW7L4G3RRWOITk7cncxWwn77fF/29eteVsXKCNR2WV4ktkz90A7og6dqZDk9lzPeimcNn+Nn25G3VkicolUTN20aZ6uY7efvttqjdQYrFRiUa7klnWyTOgcAGUkfSPZRt8wEPruf+lb7tqXwTfenM36zittnV0kD8GkOt2tadfmoJvZnsUlkv5I9ikpeHaYhKeLa+zG9IUPJe1c8yvdELyxyHR0tcq7K4FWm9T/VxH+SmEmzdvVi3Dr75V4s6dO/jRj36EgYGB+oXvBeC5D2BgAhPHharFjCMOuADgfgDr32T/l3oYz355QYRizedEHAIAJJDabuIAmiaDzP3st9691SYhe9BvdUIaltCbSCDrCCBD/hQAhiA+p1xL7BsCAES3M8oFmiKGyHUAsEOyGBV+N8MyDAAhRGMquiqk4gj8/iyO/ecQDhpM6JeO4LXzVxCSFYq22qY6uo7y1/39+/erF6qvWUwjvPTSS/TSSy81VHb9Uq6LejFcp2SSNkJBCoaCtPGgQUPyT6SSp1h7SJD3eG4+YF7dPeV7NuN/VqFrllylcYAAFwWrdMDy7WH/WJ2BVDriJik/8d1nJWlYKpkIt5I70uT8UJU21dt1VO8eYLFRiUYmyPKEL0LVi7uUzQ+z8yFWVYYgtUn+eTw3MSmQ9GsvrTd6IdfiUZBcAgjCOK2qsb3CcMBN1W7JhM+evWln6920DfBglcaFrKhMBkoHKMniRG6TD4Jqbaq36+hnP/sZDQwMVP2dh1Eq8Y9//KOuU1MWGfGvcl+f2aOuEVs+TPxPABBccJ+2qLttBYyveBC6OgYRMkIfOHHoX0zo/+lZvL8cQuxhK1vMIDI/gfdlwDbrgm2f2ha3n0w0jNgLEqQ3L2BipHSAYoT59FmcFbBjOFOXqm2qv+toYGCg5jCKxeZpYTuCuVEn/BDg+tgNSQ3nvkwKqVTlp8QFD+ZTS9hMBLFwxgYRMmJ/WcSE4wj6/8WEfscc/H9vfB4kvjwG+ztRYGQJC6dFFQ5Ae3qG3QjeDiL4rg2VM0QixBcBIAS5ETFuR5t2cJ/PqLcp5gc/6JB2P4nD90s7LtwDrLN+uIfV8YqVb47B5PCX/dcO77crcJRO7goSxv8gYfxSCrFIAIE/erH4vwHEli/g2PIVjN0IYul4bfFI/XUOTocPsuCA9w9j6E6pKeFJCrEvQgjfjaMot0msf91o/fa0aTv3aTAYav7OYqM5AsR/y319klZhe3H4/nsIzusyrLNhBC5aVXP37xFt8MwPlf3XCLHa067HCPPLDphfdsB1SUbogzE43wrgys+dED8PYfInypZl7s3B9uIFRAQHvBEvHI2MRnVM6otFjI2ehf8bABBgfrkfptydllB4G1VJI23aPddRATUmkxgiADQzM9NQ2c0PpeyE5LlgVTfyLPXeIqQpPGvNedx6O+eUVpU0Bc8JtY+14HTWwluahkwIkqve26h3szbafSq4QX69RDaAINjIHUqUHXPxDV51h8XG21Rv19H09HRNxz6es+kA4gtS1rfhegTRWgVTYSxKR3BEmkO4Yuojg8h7R2GfikA44UX4qkPToYe8fAwGgwGG8yFU94bpQb8l1zPaklFxCFt+vDbshE+2wn03gMnBNgwVenphGgCAKOLfKRXIIJnMdjfEfUp+OM0R/csiAgCk2QVMviw02Ttork277jpqUcSYMtBEz4ZonTyD9V9bFjw/FVzpC272Ci74mhBx59zkXRSssf/C0/fM6s61OY/C5B7Meb/62tknK3ox264q7Kfgtr9zSUWrhGdRo5e0QQvD1Xs2zbepvq6jej0bFhuVaE5sShfBWRXXtCS/XCqsaSl3bkvezdXtlNAQEdFmYUggnFiiDQX/u3SsyjE8zi+MbLfQ5OyIuMmSE8Zy1/vNqzkfm1Mrqqw0LzjaHV+izcclPzxO0Oqb1sKq6nKxabVN9XQd1RMbjmejEgaDATMzM5iammq4TnzZiSGHDzIAcXAMdrsZJiQQuxXA6loMMgRI7/qx+mbJZJ3sh9N0DD4AwvMS+k219mCH5/Y42uZx8zCECz93Ym5NBiDCetwG6d9F9O44BsD6+iq8l22F7nn0PRMOvZWrMyyilpeI5XUvPK9Ud8VvjAwi70gYmooAgoSx0zaY9wKJ6BV4l2PZN2BqTUw/DODsC0exKAPos2Ls1WMQtkPw3wwgJgsQBBmyDLhup+HJv+3ZZZvq5TqamZnB9PQ0qkrK7vWMIWq+Z5OnejyRcVoIKXTFCx6xjXyqe82qxuMEhX1ucjwvVB7D4Bh5ApsVk5f5oUYjH1UmbYmIKElhhfg5bYn/E1+paNPsfpLFRaalSzxUaFM9XEfcs9GIVno2OyiNINdwlDudURrtTbfHUBIZsN2RDfPnQ8sIih28jur1bNjPRi/o9uZsgmeNCl6zekPDUKCdOB86vo741TfDMJrAYsMwjCaw2DAMowksNgzDaAKLDcMwmsBiwzCMJrDYMAyjCSw2DMNoAosNwzCawGLDMIwmsNgwDKMJLDYMw2gCiw3DMJrAYsMwjCaw2DAMowksNgzDaAIHz9IJmdK0tg0HQCqJOgegx2hUP7FYPQtK7W4mIl1pVL9ORbLTMpBWU7TarmX1njWip5E7XKNzwj2bjpJC5PdncfRfDdjT24ve/GdPnTzZT2SEfutEv2lPsU5vL/aY+uH8baQyP1Mb7I4tT1TavdeAg7YJ+L6qnkkq9XcfJmwHYdjbXL1d8yQO//mjOLinZL+9e2B6wYnFL9p/xhqi1XbdjsH/jkK9Hx7E0V8uIlQtC6ccwvuOfpgUzsn7f23DOWkgjjHTAGg24Hl6k5ZO5IKEC2ZynPOQZ95DnvlJGi8ErhZp7EZFpp9cGhQQ+mw0fnGBvH4vLZwrBvMWTqyQWmHCK3i0UbQbItnOTObsdtHYYN5uK02GKtOKFNOOCGQedZHn6gqtXC09Xiu5P29DVswd58xOrsteWvUv0eRpKZszqW37bdXGJtr1QZAmc7mjsvU8hfYoBKEXpMpso4VMpNmg6JOXvbTiWyDXqDl3TgRy3GjuKuK8URrRrNisX8rlEBp0U1ghYVHy9mTuxtyZPG3zqi2Xl2iBNspz/cSXchHzhRrpXXdDMZ2u8LKy3Zsf55KeCQ5aKU36VkgGZyFXoLxikoIX8/mWvKoLZTo0WTURWyFJm0ICNy1prV2TtHpGKKbNfVxWj9K08WHu+AbcFC7ozSYtjeSyV/xhoyL7RSGXltBcdg4WG41oTmzWyTOQbWzX7WpP1GImR8ulfNqPTVoari0mhVQhl9aVC+yGqCeX7K1MSHaQpJVTqLAhfdtVW0wKqUXGKxLJ7Y40Bc9l7RnzK2043xYSLX2t5n6bocV2Ta7SOOrZXhSWQpK6r5dIqikmYXLnHgyeaONHwbm+dUkGmfvZb717q03G9aDf6oQ0LKE3kciN12XInwLAEMTnlGuJfdnc2tFt9ec/In/xIArA8psJ2KvsHzDCNurK2nBrHfHcf1MPc99eEKGYcu45EYcAAAmkttWzGYghch0A7JAsSrkOzLAMA0AI0ZjK8xRyBL53XsMRqR8mw0EM/ecxnP2tH5W7abFdt1NIAACM2FN1TlfEoREJ0rCE+He5NngoIwQAL4pV8nqLEF8EgCgyal5GjesWUws01bNJFFLXWufV7YHkn4DlqVZ3T7E3Nnm3TtEHGxQMBSkY2mg8pW2+ZzPgIVXPSOHp76JglU5kPmVurXzZzbJ5Y4zEXJI34XmJpGFr4W8IDvLGm9uecrvmeyACjfvVHHzmt9tcL5OHURrRnNgQJf88XpiIk37tpfUHKhjxKEguAQRhnFbV2N4OwjSZn0Nq8kZphM0Ps3MWVrWHf4XhWfX5h4QvN0cxq1L+0KgnO98mOGjpy9Ic5yX5vpvJLV6jXQtzfxDJPh+khArz3OnbLhIAEs6sNpX/nMVGI5oVG6I0bVwtPv0AgcyvjJPHF6SNloQiTeHcJKvtwzZMdRZu2p0T1qoQz21bcFFQhQT3O+iA2GxcdZA0LJH9w40a9lTvae2kXrsmKXgx/1YtKzrWUy5a8q+3JjyPwjQ5AAJsTc9hsdhoRPNikyMRpIUzthLRyb8adtPKl40/V9r+VqVdYvMoTO7B7DFXnyzfBZ3o2dQkTO4mzmOj7Zr8coXchdfWReGxnVmgYMMjrOLr91YeWCw2GtGy2ORJJ2kj5CXPDuFR8rOpJHnXXei2t2OIQ0TtEZvHxYvbOhuueAWrCp0Um3SC1gNeWpjP+754yDM/TrYGz2NL7fpok9b9SyX+MlX8bCr3RuFZa/E1eoO7K4XFRiN2LTalpBMUfNfWkMNZwVGunUJDROrP2ewUGrWnswt0SGw2/S6ShJKhzbBE0nDpRHFtsVGlXR+sk/d1a2FSurq7Qnqn0FT46zQGi41GqCo2RFTqQIdzQeWnfsEL1NrAk2u35H1BavkG5aj7Niq966dow6SD5Kr3Nurd7Hm2+9R5o5OfYMXgOHmj5WeggWGUqu1a9LORqgyNCkM1BafHZmA/Gx0iLx+DwWCA4XwI1d0YetBvyfpWYEuuXBez5cdrw074ZCvcdwOYHGz3gkIR/S9mPWS896I1S6YiizgiHcGR98JIVvyaQeS9o7BPRSCc8CJ81VHF10MlenphGgCAKOLfKRXIIJnMLh4S9yn54TRLCqGb70MG4Jr1wDHQ5DabaNfIOwYYDAYc+b941TKAiH5r9ltIrlwkFf/jazji8EEedCN8axLWNi6IZbHpAIJ4KOvYdj2AcA0HtvR2TmL2la363Y5gbvQYrnwjwOHzYvI/1LhJ6mN9ZQJWAPKUB76taqVSCN1cBADYRqUKIYkvj8H+VgjyoBv+Pzggtj3ugBmWEQFACP67CjdlJoxQzunvkFkNwc4g9TD7TdFhczuZc8RToMl2FfvsAIDQzRCqy00G6UfZb5Znd9qTuTcH58+vIC444F2ehLXdl1HrnSamFDQ1jNosOPUJJ5ZoQ2GskY4t5brSwk5HrsKkqkAOn9areYrDH+U1XcniWhwFn5DChOcuu+vNko64c8ssXBVOaoV1QM34vdQkSatncss1LgZ3bjNZuoi1bBjVSrsWXlODrG+uUkJhrqW4xs66c+lBfqim4lxfvWGUgYiozXpWmydoOKpOaeyUhmN1aITBYMDMzAympqYaq/AwhAs/d2JuTQYgwnrcBunfRfQigditAFbXYpABWF9fhfeyrdBDiL5nwqG3cnWGReypsQvL6154XlFcHLAL4vD91xCc13M2nLLjmNkEPIghcGsVob/LgCDBfXN15xBA9sNpOgYfAOF5Cf2mWvuww3N7HBbVbM4g8o6EoakIIEgYO22DeS+QiF6BdzkGWXDAG/HCcUCl3d1/H0OWCUQACM/bcOxVCT3frcD/UQRxQYAgy5AhYenrIMb6slVabdfMV1dw9pXXcOUbAIIZ0ogNNrMJeBRH+NMA/PfiAATYLgWw8mtLroccxZzpEC7IAPqskMSae4PrYw9sDVxGMzMzmJ6eRlVJaVS1CjP2zXxqrOBNxlZz/iX1VpYmacPnIltf+fZFsp3zVq6Q7RBoZYL4cYLCPncxFEDJRxwcI09gs2JiODzb+PlXa8KzkhptUs2vo/BWqJFPc6uNG7U5PF8M11A4zyMu8sbUn1xPfr5Q1q4CmUc9FH5Q7NWWLgzdVbsmN2n18rhCewhkfsVFS59Xm6Ru5NO4q4NqPRv5LxNw/r58YjCN+KcRxAGIgxLEvWU/P++C95KtuPDuYQyB5UUsXl5E4Jv8P90I0ySsinstfSKZ4TgxBskqAtEQ/Mu5bQy6sb42CUuHA6413bMppzRyXcOR+jrPjt5mByIFNk9JNDsNIgQWzo9GbdrJ3r9qPRtligpZL35K4oajqJaCmWyjtuw4usZTrBCHZMBVudYnGSyMV9v3BG8cqP7qm2G6C/28+n4CmEddWApsIPntBlbnnXVeeWYQvjUHGYD9/ARs+8p+Nko4ez47G++/u65BKEyGYXaDZp0sYdSLjdFmaqQg516vHhKVZ6cE8RAAP/AwVcNfhWEYPaCj9znlCHDcIDhqlJDj6wAAi9WsHJBpBxnIX4Sx8ahOsb39GPqJ0AVzDwzTXehYbOoRx+p1PwArnC838pI0hdD8ETj/WKfYcS8SNxwNiBfDMM3QtWITvz6B124Bwjk3xgcaqWGEdD6I4Jk6xfb2Qxt/XIb5ftGVYpO5Nwfnf/kBwQXvlNTgkKcHwk8k7rEwTIfovrVRWz6MvXoBEVjhvumGpFUmRYZhdkV39Wy2fHBaW13pnELkoysIP6xTbN8Qxk5ZeSjFMCrTPWKzHcHcqBM+udWVzhnEb01gooEJYucpZX9mhmFapzvEZjuCuZ/aceGeAMfHYXhHW4mAwhPEDNNJukBs4vD90o4LazKss2FcOdFqqCWeIGaYTqLzCeIUIu844byeFZrQRSs72zFMl6Lrno38x/Hsim8ISK1dwNG7NQq/4kHwdfUioDAMoy66Fhs8ya94khFbkxGrVfZFXh3FMHpml2JjxSQRJlup+pwDK1Rr5RMgjK6Amlq8yTCMXtH5nA3DME8L+h5GMUAmhVRhhNgDY/eE8NO/3U3Ev9YVpVEd9XpuFeCejV55Eof//FEc3NOL3t78Zw9MLzix+IWOQ4V1gd2prwJY/OVRHPzhHCKdNqYZUlEsOvph2rvz3B60TcBfNbWOjtAwauBTDVQNC1pMTYs+O7kue2nVv0STp6WGUvJ2Dh3b/WBDISh4OwKrt4lHYXIP5tL/vDxGk1dXaNW3QK7jYgPpdbWB0+9qhJpiU4i9rJBfqZAqdWSpvWlrW0CvdrcS/1pvbF61VUlXXJLK+M0qaZo1Qj8xiJkGKcZeHjs/XpEOVRydwMQAgFs+hL5Rqt8pdGx30/Gv9UYcoeUAAAsmflOerrgH1jMTGAMgvxdAWMceICw2uiOGSC4drGRRWqVlhmUYAEKIxvQxB5JFv3YLo15s+DwYGzHD2I0TwnIUoU8BwIYhpUBx+yyw5s/tV5pa1hQsNnojlUBCBgARguJCrh70mrKe0olUUkPD6tCtdncDcjzr0DosVlnb1wtTHwBEkayRO77TsNjoje1ULvF8L/ZUeaNpErIdaf+WrJVV9elWu7uBTAZRADDuqZKW14jeXDrj2Lf6PbcsNgzDaAKLDcMwmsBiwzCMJrDYMAyjCSw2emOfkPOjSCJdxWcisRUGANj7dOQt0q12dwP7BEgAkEojrVhARuLr7Ldqqar1AIuN3ujphWkAAKKIf6dUIINkMvvGQdyno2jJ3Wp3N7DPBDMAfBpDXFHI08ieWgnCPi0Naw4WG91hhmVEABCC/2688udMGKGc89whs55W+3ar3V2A0QzLCAB4EYooqM03Ifg/BSBI6O/T2LYmYLHRHT0Y+ulZWAAE3lpEoMzZNr68iDkZwCknbM91wr5qdKvd3YCIoyfsAGTM/fYKYk9Kf0sh9PEiAgAsv7FBz0mIutF5+6mnZ9CFxdlVDE29j6PmKMZO22DeCySiV+BdjgGCA94pu+5SznSr3d2AMOqB91YYzutn0W8OwfU/QzAhifiaD4u34sCgG4tndB6DW8NFoU81UDXEBBFRksLzDjILpSERQOKIi7wxPYaXyNMFdn/rJXuXrfomIqJHG+Q9ZyMRpedWIPOoh8IPOm1c/VXfBiKiTgnd04TBYMDMzAympqZU3nIGqXzIu2eMMHZNbvNutbsLeJJBajt3bnuM0EugvpmZGUxPT6OapPAwSvd0T9jHnXSr3V3AM915bnmCmGEYTWCxYRhGE1hsGIbRBBYbhmE0gcWGYRhNYLFhGEYTWGwYhtEEFhuGYTSBxYZhGE1gsWEYRhNYbBiG0QQWG4ZhNIHFhmEYTWCxYRhGE1hsGIbRBBYbhmE0gYNn6Z1MCqlCQP0uCpqkV7v1alerPEHX3MXcs9ErT+Lwnz+Kg3t60dub/+yB6QUnFr9I1a/fKfRqt17taokM5Hs+zDn6YXL4IHfanEbRKhjy0w5UDXi+Sd4TQjagdZ+dXJe9tOpfosnTEgkAAVZyf66T4OE70KvderWrOdLfhsk7WxZM/riXEp02LEe9gOcsNiqhptikQ5PZm2DQTeFHO3/b9Dmyv40s0aYqe1MPvdqtV7uaYf1doSgwfVYaO27rOrHhYZTuyCB8aw4ygLHz47CWZSUQRycwMQDglg+hbzphXzX0arde7WqOzJM9sJ3xwBtJIP11GEu/Geq0SU3TJVNL3ydiiOTS1EoWpXRuZliGAdwPIRpLAX16SfmmV7v1aldzWC9uYrXTRuwS7tnojVQCCRkARAiCUoEe9JqymQ8TqaSGhtVBr3br1a7vISw2emM7hQQAoBd7qryVNQkiAMC/paP3EHq1W692fQ9hsWEYRhNYbBiG0QQWGxX55z//2WkTGKZjUJUc33lYbBiG0QQWG5XYv38/tra2dr+hfQKy05VJpDPKRRJbYQCAvU/c/f7UQq9269Wup5D79+/jxz/+cdXfWWxU4sCBA+qITU8vTAMAEEX8O6UCGSST2bcm4j4d+YTo1W692vUUkkqlYDRWP4csNipx+PBhfPbZZypsyQzLiAAgBP/deOXPmTBCOSe1Q2Y9rVjWq916tevp47PPPsPhw4er/s5ioxIDAwMAsl3J3dGDoZ+ehQVA4K1FBMoWJMeXFzEnAzjlhO25Xe5KVfRqt17terrIX/f5+0AR7ZZpPd0kk0kCQB988IEKW0tTeNaaXWgnSDR20UOeeQ+5Rs3ZRYOCg7xxFXajOnq1W6927YKIW1cLMd9+++2aizCJeNW3qpw8eZIOHDig0taSFJ4vCycAkDjiIm9Mz+EQ9Gq3Xu1qEZ2Jzf79++nkyZM1yxiI6rwcZxrm/v37sFgsWFtbqzl2bY4MUvnQcs8YYXy2dmn9oFe79WpX9/LJJ5/g1VdfRTQarTmMYrFRmcOHD8NgMGBtba3TpjCMJgwMDODAgQP45JNPapbjCWKVuXbtGu7cuYNr16512hSGaTvXrl3D3/72N/zud7+rW5Z7Nm3gjTfewJ/+9CdEo9GafgcM082kUimIoohf/epXmJ6erluexYZhGE3gYRTDMJrAYsMwjCaw2DAMown/DziiHWgkGcrFAAAAAElFTkSuQmCC;" parent="1" vertex="1">
          <mxGeometry x="380" y="500" width="283" height="143" as="geometry" />
        </mxCell>
        <mxCell id="JKUWYTQ45FSb9EKCrrsS-4" value="" style="shape=cylinder3;whiteSpace=wrap;html=1;boundedLbl=1;backgroundOutline=1;size=15;" parent="1" vertex="1">
          <mxGeometry x="220" y="290" width="60" height="80" as="geometry" />
        </mxCell>
        <mxCell id="JKUWYTQ45FSb9EKCrrsS-5" value="" style="endArrow=none;html=1;rounded=0;startArrow=none;" parent="1" source="JKUWYTQ45FSb9EKCrrsS-69" edge="1">
          <mxGeometry width="50" height="50" relative="1" as="geometry">
            <mxPoint x="490" y="140" as="sourcePoint" />
            <mxPoint x="250" y="300" as="targetPoint" />
            <Array as="points">
              <mxPoint x="250" y="220" />
            </Array>
          </mxGeometry>
        </mxCell>
        <mxCell id="JKUWYTQ45FSb9EKCrrsS-6" value="" style="endArrow=none;html=1;rounded=0;exitX=1;exitY=0.5;exitDx=0;exitDy=0;" parent="1" edge="1">
          <mxGeometry width="50" height="50" relative="1" as="geometry">
            <mxPoint x="255" y="161" as="sourcePoint" />
            <mxPoint x="450" y="161" as="targetPoint" />
          </mxGeometry>
        </mxCell>
        <mxCell id="JKUWYTQ45FSb9EKCrrsS-7" value="&lt;b&gt;&lt;font style=&quot;font-size: 15px;&quot;&gt;M&lt;/font&gt;&lt;/b&gt;" style="text;html=1;strokeColor=none;fillColor=none;align=center;verticalAlign=middle;whiteSpace=wrap;rounded=0;" parent="1" vertex="1">
          <mxGeometry x="410" y="135" width="60" height="30" as="geometry" />
        </mxCell>
        <mxCell id="JKUWYTQ45FSb9EKCrrsS-8" value="&lt;b&gt;&lt;font style=&quot;font-size: 15px;&quot;&gt;O&lt;/font&gt;&lt;/b&gt;" style="text;html=1;strokeColor=none;fillColor=none;align=center;verticalAlign=middle;whiteSpace=wrap;rounded=0;" parent="1" vertex="1">
          <mxGeometry x="210" y="410" width="60" height="30" as="geometry" />
        </mxCell>
        <mxCell id="JKUWYTQ45FSb9EKCrrsS-9" value="" style="endArrow=none;html=1;rounded=0;exitX=0.5;exitY=1;exitDx=0;exitDy=0;exitPerimeter=0;" parent="1" source="JKUWYTQ45FSb9EKCrrsS-4" edge="1">
          <mxGeometry width="50" height="50" relative="1" as="geometry">
            <mxPoint x="430" y="270" as="sourcePoint" />
            <mxPoint x="250" y="440" as="targetPoint" />
          </mxGeometry>
        </mxCell>
        <mxCell id="JKUWYTQ45FSb9EKCrrsS-10" value="" style="endArrow=none;html=1;rounded=0;startArrow=none;" parent="1" source="JKUWYTQ45FSb9EKCrrsS-20" edge="1">
          <mxGeometry width="50" height="50" relative="1" as="geometry">
            <mxPoint x="160" y="440" as="sourcePoint" />
            <mxPoint x="360" y="435" as="targetPoint" />
          </mxGeometry>
        </mxCell>
        <mxCell id="JKUWYTQ45FSb9EKCrrsS-11" value="" style="endArrow=none;html=1;rounded=0;" parent="1" edge="1">
          <mxGeometry width="50" height="50" relative="1" as="geometry">
            <mxPoint x="150" y="465" as="sourcePoint" />
            <mxPoint x="180" y="435" as="targetPoint" />
          </mxGeometry>
        </mxCell>
        <mxCell id="JKUWYTQ45FSb9EKCrrsS-12" value="" style="endArrow=none;html=1;rounded=0;" parent="1" edge="1">
          <mxGeometry width="50" height="50" relative="1" as="geometry">
            <mxPoint x="180" y="465" as="sourcePoint" />
            <mxPoint x="210" y="435" as="targetPoint" />
          </mxGeometry>
        </mxCell>
        <mxCell id="JKUWYTQ45FSb9EKCrrsS-13" value="" style="endArrow=none;html=1;rounded=0;" parent="1" edge="1">
          <mxGeometry width="50" height="50" relative="1" as="geometry">
            <mxPoint x="210" y="465" as="sourcePoint" />
            <mxPoint x="240" y="435" as="targetPoint" />
          </mxGeometry>
        </mxCell>
        <mxCell id="JKUWYTQ45FSb9EKCrrsS-14" value="" style="endArrow=none;html=1;rounded=0;" parent="1" edge="1">
          <mxGeometry width="50" height="50" relative="1" as="geometry">
            <mxPoint x="240" y="465" as="sourcePoint" />
            <mxPoint x="270" y="435" as="targetPoint" />
          </mxGeometry>
        </mxCell>
        <mxCell id="JKUWYTQ45FSb9EKCrrsS-15" value="" style="endArrow=none;html=1;rounded=0;" parent="1" edge="1">
          <mxGeometry width="50" height="50" relative="1" as="geometry">
            <mxPoint x="270" y="465" as="sourcePoint" />
            <mxPoint x="300" y="435" as="targetPoint" />
          </mxGeometry>
        </mxCell>
        <mxCell id="JKUWYTQ45FSb9EKCrrsS-16" value="" style="endArrow=none;html=1;rounded=0;" parent="1" edge="1">
          <mxGeometry width="50" height="50" relative="1" as="geometry">
            <mxPoint x="300" y="465" as="sourcePoint" />
            <mxPoint x="330" y="435" as="targetPoint" />
          </mxGeometry>
        </mxCell>
        <mxCell id="JKUWYTQ45FSb9EKCrrsS-17" value="" style="endArrow=none;html=1;rounded=0;" parent="1" edge="1">
          <mxGeometry width="50" height="50" relative="1" as="geometry">
            <mxPoint x="330" y="465" as="sourcePoint" />
            <mxPoint x="360" y="435" as="targetPoint" />
          </mxGeometry>
        </mxCell>
        <mxCell id="JKUWYTQ45FSb9EKCrrsS-18" value="" style="endArrow=classic;startArrow=classic;html=1;rounded=0;fillColor=#d5e8d4;strokeColor=#41841a;" parent="1" edge="1">
          <mxGeometry width="50" height="50" relative="1" as="geometry">
            <mxPoint x="120" y="440" as="sourcePoint" />
            <mxPoint x="120" y="160" as="targetPoint" />
          </mxGeometry>
        </mxCell>
        <mxCell id="JKUWYTQ45FSb9EKCrrsS-19" value="" style="endArrow=none;html=1;rounded=0;" parent="1" target="JKUWYTQ45FSb9EKCrrsS-20" edge="1">
          <mxGeometry width="50" height="50" relative="1" as="geometry">
            <mxPoint x="160" y="435" as="sourcePoint" />
            <mxPoint x="360" y="440" as="targetPoint" />
          </mxGeometry>
        </mxCell>
        <mxCell id="JKUWYTQ45FSb9EKCrrsS-20" value="" style="ellipse;whiteSpace=wrap;html=1;aspect=fixed;gradientColor=none;fillColor=#0d0d0d;" parent="1" vertex="1">
          <mxGeometry x="245" y="430" width="10" height="10" as="geometry" />
        </mxCell>
        <mxCell id="JKUWYTQ45FSb9EKCrrsS-21" value="" style="endArrow=classic;startArrow=classic;html=1;rounded=0;fillColor=#d5e8d4;strokeColor=#41841a;" parent="1" edge="1">
          <mxGeometry width="50" height="50" relative="1" as="geometry">
            <mxPoint x="450" y="20" as="sourcePoint" />
            <mxPoint x="249.64" y="20" as="targetPoint" />
          </mxGeometry>
        </mxCell>
        <mxCell id="JKUWYTQ45FSb9EKCrrsS-24" value="&lt;b&gt;&lt;font color=&quot;#049f1e&quot; style=&quot;font-size: 15px;&quot;&gt;a2&lt;/font&gt;&lt;/b&gt;" style="text;html=1;strokeColor=none;fillColor=none;align=center;verticalAlign=middle;whiteSpace=wrap;rounded=0;" parent="1" vertex="1">
          <mxGeometry x="320" y="-10" width="60" height="30" as="geometry" />
        </mxCell>
        <mxCell id="JKUWYTQ45FSb9EKCrrsS-25" value="&lt;b&gt;&lt;font color=&quot;#049f1e&quot; style=&quot;font-size: 15px;&quot;&gt;a1&lt;/font&gt;&lt;/b&gt;" style="text;html=1;strokeColor=none;fillColor=none;align=center;verticalAlign=middle;whiteSpace=wrap;rounded=0;" parent="1" vertex="1">
          <mxGeometry x="80" y="310" width="60" height="30" as="geometry" />
        </mxCell>
        <mxCell id="JKUWYTQ45FSb9EKCrrsS-26" value="" style="endArrow=classic;html=1;rounded=0;strokeColor=#eb0505;endSize=9;startSize=10;jumpSize=15;strokeWidth=2;dashed=1;" parent="1" source="JKUWYTQ45FSb9EKCrrsS-20" edge="1">
          <mxGeometry width="50" height="50" relative="1" as="geometry">
            <mxPoint x="250" y="430" as="sourcePoint" />
            <mxPoint x="340" y="370" as="targetPoint" />
          </mxGeometry>
        </mxCell>
        <mxCell id="JKUWYTQ45FSb9EKCrrsS-27" value="" style="endArrow=classic;html=1;rounded=0;strokeColor=#eb0505;endSize=9;startSize=10;jumpSize=15;strokeWidth=2;exitX=1;exitY=0.5;exitDx=0;exitDy=0;" parent="1" source="JKUWYTQ45FSb9EKCrrsS-20" edge="1">
          <mxGeometry width="50" height="50" relative="1" as="geometry">
            <mxPoint x="260" y="435" as="sourcePoint" />
            <mxPoint x="330" y="435" as="targetPoint" />
          </mxGeometry>
        </mxCell>
        <mxCell id="JKUWYTQ45FSb9EKCrrsS-28" value="" style="endArrow=classic;html=1;rounded=0;strokeColor=#eb0505;endSize=9;startSize=10;jumpSize=15;strokeWidth=2;" parent="1" target="JKUWYTQ45FSb9EKCrrsS-4" edge="1">
          <mxGeometry width="50" height="50" relative="1" as="geometry">
            <mxPoint x="250" y="430" as="sourcePoint" />
            <mxPoint x="340" y="445" as="targetPoint" />
          </mxGeometry>
        </mxCell>
        <mxCell id="JKUWYTQ45FSb9EKCrrsS-29" value="&lt;b&gt;&lt;font color=&quot;#de0202&quot; style=&quot;font-size: 15px;&quot;&gt;x&lt;sub&gt;0&lt;/sub&gt;&lt;/font&gt;&lt;/b&gt;" style="text;html=1;strokeColor=none;fillColor=none;align=center;verticalAlign=middle;whiteSpace=wrap;rounded=0;" parent="1" vertex="1">
          <mxGeometry x="310" y="410" width="60" height="30" as="geometry" />
        </mxCell>
        <mxCell id="JKUWYTQ45FSb9EKCrrsS-30" value="&lt;b&gt;&lt;font color=&quot;#de0202&quot; style=&quot;font-size: 15px;&quot;&gt;z&lt;sub&gt;0&lt;/sub&gt;&lt;/font&gt;&lt;/b&gt;" style="text;html=1;strokeColor=none;fillColor=none;align=center;verticalAlign=middle;whiteSpace=wrap;rounded=0;" parent="1" vertex="1">
          <mxGeometry x="200" y="370" width="60" height="30" as="geometry" />
        </mxCell>
        <mxCell id="JKUWYTQ45FSb9EKCrrsS-31" value="&lt;b&gt;&lt;font color=&quot;#de0202&quot; style=&quot;font-size: 15px;&quot;&gt;y&lt;sub&gt;0&lt;/sub&gt;&lt;/font&gt;&lt;/b&gt;" style="text;html=1;strokeColor=none;fillColor=none;align=center;verticalAlign=middle;whiteSpace=wrap;rounded=0;" parent="1" vertex="1">
          <mxGeometry x="280" y="360" width="60" height="30" as="geometry" />
        </mxCell>
        <mxCell id="JKUWYTQ45FSb9EKCrrsS-32" value="&lt;b&gt;&lt;font color=&quot;#de0202&quot; style=&quot;font-size: 15px;&quot;&gt;y&lt;sub&gt;1&lt;/sub&gt;&lt;/font&gt;&lt;/b&gt;" style="text;html=1;strokeColor=none;fillColor=none;align=center;verticalAlign=middle;whiteSpace=wrap;rounded=0;" parent="1" vertex="1">
          <mxGeometry x="200" y="90" width="60" height="30" as="geometry" />
        </mxCell>
        <mxCell id="JKUWYTQ45FSb9EKCrrsS-33" value="&lt;b&gt;&lt;font color=&quot;#de0202&quot; style=&quot;font-size: 15px;&quot;&gt;x&lt;sub&gt;1&lt;/sub&gt;&lt;/font&gt;&lt;/b&gt;" style="text;html=1;strokeColor=none;fillColor=none;align=center;verticalAlign=middle;whiteSpace=wrap;rounded=0;" parent="1" vertex="1">
          <mxGeometry x="270" y="157" width="60" height="30" as="geometry" />
        </mxCell>
        <mxCell id="JKUWYTQ45FSb9EKCrrsS-34" value="" style="endArrow=none;html=1;rounded=0;strokeWidth=1;entryX=0.145;entryY=1;entryDx=0;entryDy=-4.35;entryPerimeter=0;strokeColor=#bcb9b9;" parent="1" target="JKUWYTQ45FSb9EKCrrsS-4" edge="1">
          <mxGeometry width="50" height="50" relative="1" as="geometry">
            <mxPoint x="160" y="370" as="sourcePoint" />
            <mxPoint x="220" y="430" as="targetPoint" />
          </mxGeometry>
        </mxCell>
        <mxCell id="JKUWYTQ45FSb9EKCrrsS-35" value="&lt;b&gt;&lt;font color=&quot;#919191&quot; style=&quot;font-size: 15px;&quot;&gt;0&lt;br&gt;&lt;/font&gt;&lt;/b&gt;" style="text;html=1;strokeColor=none;fillColor=none;align=center;verticalAlign=middle;whiteSpace=wrap;rounded=0;" parent="1" vertex="1">
          <mxGeometry x="130" y="360" width="60" height="30" as="geometry" />
        </mxCell>
        <mxCell id="JKUWYTQ45FSb9EKCrrsS-36" value="" style="endArrow=none;html=1;rounded=0;strokeWidth=1;strokeColor=#bcb9b9;" parent="1" edge="1">
          <mxGeometry width="50" height="50" relative="1" as="geometry">
            <mxPoint x="170" y="250" as="sourcePoint" />
            <mxPoint x="250" y="240" as="targetPoint" />
          </mxGeometry>
        </mxCell>
        <mxCell id="JKUWYTQ45FSb9EKCrrsS-37" value="&lt;b&gt;&lt;font color=&quot;#919191&quot; style=&quot;font-size: 15px;&quot;&gt;1&lt;br&gt;&lt;/font&gt;&lt;/b&gt;" style="text;html=1;strokeColor=none;fillColor=none;align=center;verticalAlign=middle;whiteSpace=wrap;rounded=0;" parent="1" vertex="1">
          <mxGeometry x="140" y="240" width="60" height="30" as="geometry" />
        </mxCell>
        <mxCell id="JKUWYTQ45FSb9EKCrrsS-38" value="" style="curved=1;endArrow=classic;html=1;rounded=0;strokeColor=#020aed;" parent="1" edge="1">
          <mxGeometry width="50" height="50" relative="1" as="geometry">
            <mxPoint x="260" y="360" as="sourcePoint" />
            <mxPoint x="240" y="360" as="targetPoint" />
            <Array as="points">
              <mxPoint x="250" y="350" />
            </Array>
          </mxGeometry>
        </mxCell>
        <mxCell id="JKUWYTQ45FSb9EKCrrsS-39" value="&lt;b style=&quot;&quot;&gt;&lt;font color=&quot;#1c02de&quot;&gt;θ&lt;span style=&quot;font-size: 15px;&quot;&gt;&lt;sub style=&quot;&quot;&gt;1&lt;/sub&gt;&lt;/span&gt;&lt;/font&gt;&lt;/b&gt;" style="text;html=1;strokeColor=none;fillColor=none;align=center;verticalAlign=middle;whiteSpace=wrap;rounded=0;" parent="1" vertex="1">
          <mxGeometry x="220" y="320" width="60" height="30" as="geometry" />
        </mxCell>
        <mxCell id="JKUWYTQ45FSb9EKCrrsS-40" value="" style="endArrow=classic;html=1;rounded=0;strokeColor=#eb0505;endSize=9;startSize=10;jumpSize=15;strokeWidth=2;exitX=1;exitY=0.5;exitDx=0;exitDy=0;" parent="1" edge="1">
          <mxGeometry width="50" height="50" relative="1" as="geometry">
            <mxPoint x="568" y="380" as="sourcePoint" />
            <mxPoint x="643" y="380" as="targetPoint" />
          </mxGeometry>
        </mxCell>
        <mxCell id="JKUWYTQ45FSb9EKCrrsS-41" value="" style="endArrow=classic;html=1;rounded=0;strokeColor=#eb0505;endSize=9;startSize=10;jumpSize=15;strokeWidth=2;exitX=1;exitY=0.5;exitDx=0;exitDy=0;" parent="1" edge="1">
          <mxGeometry width="50" height="50" relative="1" as="geometry">
            <mxPoint x="568" y="380" as="sourcePoint" />
            <mxPoint x="638" y="350" as="targetPoint" />
          </mxGeometry>
        </mxCell>
        <mxCell id="JKUWYTQ45FSb9EKCrrsS-42" value="&lt;b style=&quot;&quot;&gt;&lt;font color=&quot;#1c02de&quot;&gt;θ&lt;span style=&quot;font-size: 15px;&quot;&gt;&lt;sub style=&quot;&quot;&gt;1&lt;/sub&gt;&lt;/span&gt;&lt;/font&gt;&lt;/b&gt;" style="text;html=1;strokeColor=none;fillColor=none;align=center;verticalAlign=middle;whiteSpace=wrap;rounded=0;" parent="1" vertex="1">
          <mxGeometry x="628" y="350" width="60" height="30" as="geometry" />
        </mxCell>
        <mxCell id="JKUWYTQ45FSb9EKCrrsS-43" value="" style="curved=1;endArrow=classic;html=1;rounded=0;strokeColor=#020aed;" parent="1" edge="1">
          <mxGeometry width="50" height="50" relative="1" as="geometry">
            <mxPoint x="618" y="380" as="sourcePoint" />
            <mxPoint x="608" y="360" as="targetPoint" />
            <Array as="points">
              <mxPoint x="638" y="380" />
            </Array>
          </mxGeometry>
        </mxCell>
        <mxCell id="JKUWYTQ45FSb9EKCrrsS-44" value="&lt;b&gt;&lt;font color=&quot;#de0202&quot; style=&quot;font-size: 15px;&quot;&gt;x&lt;sub&gt;0&lt;/sub&gt;&lt;/font&gt;&lt;/b&gt;" style="text;html=1;strokeColor=none;fillColor=none;align=center;verticalAlign=middle;whiteSpace=wrap;rounded=0;" parent="1" vertex="1">
          <mxGeometry x="588" y="380" width="60" height="30" as="geometry" />
        </mxCell>
        <mxCell id="JKUWYTQ45FSb9EKCrrsS-45" value="&lt;b&gt;&lt;font color=&quot;#de0202&quot; style=&quot;font-size: 15px;&quot;&gt;x&lt;sub&gt;1&lt;/sub&gt;&lt;/font&gt;&lt;/b&gt;" style="text;html=1;strokeColor=none;fillColor=none;align=center;verticalAlign=middle;whiteSpace=wrap;rounded=0;" parent="1" vertex="1">
          <mxGeometry x="578" y="330" width="60" height="30" as="geometry" />
        </mxCell>
        <mxCell id="JKUWYTQ45FSb9EKCrrsS-46" value="" style="endArrow=classic;html=1;rounded=0;strokeColor=#eb0505;endSize=9;startSize=10;jumpSize=15;strokeWidth=2;" parent="1" edge="1">
          <mxGeometry width="50" height="50" relative="1" as="geometry">
            <mxPoint x="568" y="380" as="sourcePoint" />
            <mxPoint x="568" y="300" as="targetPoint" />
          </mxGeometry>
        </mxCell>
        <mxCell id="JKUWYTQ45FSb9EKCrrsS-47" value="" style="endArrow=classic;html=1;rounded=0;strokeColor=#eb0505;endSize=9;startSize=10;jumpSize=15;strokeWidth=2;" parent="1" edge="1">
          <mxGeometry width="50" height="50" relative="1" as="geometry">
            <mxPoint x="568" y="380" as="sourcePoint" />
            <mxPoint x="590" y="440" as="targetPoint" />
          </mxGeometry>
        </mxCell>
        <mxCell id="JKUWYTQ45FSb9EKCrrsS-48" value="&lt;b&gt;&lt;font color=&quot;#de0202&quot; style=&quot;font-size: 15px;&quot;&gt;y&lt;sub&gt;0&lt;/sub&gt;&lt;/font&gt;&lt;/b&gt;" style="text;html=1;strokeColor=none;fillColor=none;align=center;verticalAlign=middle;whiteSpace=wrap;rounded=0;" parent="1" vertex="1">
          <mxGeometry x="558" y="290" width="60" height="30" as="geometry" />
        </mxCell>
        <mxCell id="JKUWYTQ45FSb9EKCrrsS-49" value="&lt;b&gt;&lt;font color=&quot;#de0202&quot; style=&quot;font-size: 15px;&quot;&gt;z&lt;sub&gt;1&lt;/sub&gt;&lt;/font&gt;&lt;/b&gt;" style="text;html=1;strokeColor=none;fillColor=none;align=center;verticalAlign=middle;whiteSpace=wrap;rounded=0;" parent="1" vertex="1">
          <mxGeometry x="573" y="424" width="60" height="30" as="geometry" />
        </mxCell>
        <mxCell id="JKUWYTQ45FSb9EKCrrsS-50" value="" style="ellipse;whiteSpace=wrap;html=1;aspect=fixed;strokeColor=#FF0000;" parent="1" vertex="1">
          <mxGeometry x="558" y="380" width="10" height="10" as="geometry" />
        </mxCell>
        <mxCell id="JKUWYTQ45FSb9EKCrrsS-51" value="" style="shape=waypoint;sketch=0;fillStyle=solid;size=6;pointerEvents=1;points=[];fillColor=none;resizable=0;rotatable=0;perimeter=centerPerimeter;snapToPoint=1;strokeColor=#e70404;" parent="1" vertex="1">
          <mxGeometry x="553" y="375" width="20" height="20" as="geometry" />
        </mxCell>
        <mxCell id="JKUWYTQ45FSb9EKCrrsS-52" value="&lt;b&gt;&lt;font color=&quot;#de0202&quot; style=&quot;font-size: 15px;&quot;&gt;z&lt;sub&gt;0&lt;/sub&gt;&lt;/font&gt;&lt;/b&gt;" style="text;html=1;strokeColor=none;fillColor=none;align=center;verticalAlign=middle;whiteSpace=wrap;rounded=0;" parent="1" vertex="1">
          <mxGeometry x="518" y="380" width="60" height="30" as="geometry" />
        </mxCell>
        <mxCell id="JKUWYTQ45FSb9EKCrrsS-53" value="&lt;b&gt;&lt;font color=&quot;#de0202&quot; style=&quot;font-size: 15px;&quot;&gt;y&lt;sub&gt;1&lt;/sub&gt;&lt;/font&gt;&lt;/b&gt;" style="text;html=1;strokeColor=none;fillColor=none;align=center;verticalAlign=middle;whiteSpace=wrap;rounded=0;" parent="1" vertex="1">
          <mxGeometry x="518" y="394" width="60" height="30" as="geometry" />
        </mxCell>
        <mxCell id="JKUWYTQ45FSb9EKCrrsS-54" value="" style="endArrow=classic;html=1;rounded=0;strokeColor=#eb0505;endSize=9;startSize=10;jumpSize=15;strokeWidth=2;exitX=1;exitY=0.5;exitDx=0;exitDy=0;" parent="1" edge="1">
          <mxGeometry width="50" height="50" relative="1" as="geometry">
            <mxPoint x="809" y="414" as="sourcePoint" />
            <mxPoint x="984" y="414" as="targetPoint" />
          </mxGeometry>
        </mxCell>
        <mxCell id="JKUWYTQ45FSb9EKCrrsS-55" value="" style="endArrow=classic;html=1;rounded=0;strokeColor=#eb0505;endSize=9;startSize=10;jumpSize=15;strokeWidth=2;exitX=1;exitY=0.5;exitDx=0;exitDy=0;" parent="1" edge="1">
          <mxGeometry width="50" height="50" relative="1" as="geometry">
            <mxPoint x="809" y="414" as="sourcePoint" />
            <mxPoint x="984" y="374" as="targetPoint" />
          </mxGeometry>
        </mxCell>
        <mxCell id="JKUWYTQ45FSb9EKCrrsS-56" value="&lt;b style=&quot;&quot;&gt;&lt;font color=&quot;#1c02de&quot;&gt;θ&lt;span style=&quot;font-size: 15px;&quot;&gt;&lt;sub style=&quot;&quot;&gt;2&lt;/sub&gt;&lt;/span&gt;&lt;/font&gt;&lt;/b&gt;" style="text;html=1;strokeColor=none;fillColor=none;align=center;verticalAlign=middle;whiteSpace=wrap;rounded=0;" parent="1" vertex="1">
          <mxGeometry x="882" y="387" width="60" height="30" as="geometry" />
        </mxCell>
        <mxCell id="JKUWYTQ45FSb9EKCrrsS-57" value="" style="curved=1;endArrow=classic;html=1;rounded=0;strokeColor=#020aed;" parent="1" edge="1">
          <mxGeometry width="50" height="50" relative="1" as="geometry">
            <mxPoint x="899" y="414" as="sourcePoint" />
            <mxPoint x="894" y="394" as="targetPoint" />
            <Array as="points">
              <mxPoint x="904" y="404" />
            </Array>
          </mxGeometry>
        </mxCell>
        <mxCell id="JKUWYTQ45FSb9EKCrrsS-58" value="&lt;b&gt;&lt;font color=&quot;#de0202&quot; style=&quot;font-size: 15px;&quot;&gt;x&lt;sub&gt;2&lt;/sub&gt;&lt;/font&gt;&lt;/b&gt;" style="text;html=1;strokeColor=none;fillColor=none;align=center;verticalAlign=middle;whiteSpace=wrap;rounded=0;" parent="1" vertex="1">
          <mxGeometry x="964" y="365" width="60" height="30" as="geometry" />
        </mxCell>
        <mxCell id="JKUWYTQ45FSb9EKCrrsS-60" value="" style="endArrow=classic;html=1;rounded=0;strokeColor=#eb0505;endSize=9;startSize=10;jumpSize=15;strokeWidth=2;" parent="1" edge="1">
          <mxGeometry width="50" height="50" relative="1" as="geometry">
            <mxPoint x="809" y="414" as="sourcePoint" />
            <mxPoint x="809" y="244" as="targetPoint" />
          </mxGeometry>
        </mxCell>
        <mxCell id="JKUWYTQ45FSb9EKCrrsS-61" value="" style="endArrow=classic;html=1;rounded=0;strokeColor=#eb0505;endSize=9;startSize=10;jumpSize=15;strokeWidth=2;" parent="1" edge="1">
          <mxGeometry width="50" height="50" relative="1" as="geometry">
            <mxPoint x="809" y="414" as="sourcePoint" />
            <mxPoint x="774" y="254" as="targetPoint" />
          </mxGeometry>
        </mxCell>
        <mxCell id="JKUWYTQ45FSb9EKCrrsS-62" value="&lt;b&gt;&lt;font color=&quot;#de0202&quot; style=&quot;font-size: 15px;&quot;&gt;y&lt;sub&gt;2&lt;/sub&gt;&lt;/font&gt;&lt;/b&gt;" style="text;html=1;strokeColor=none;fillColor=none;align=center;verticalAlign=middle;whiteSpace=wrap;rounded=0;" parent="1" vertex="1">
          <mxGeometry x="731" y="234" width="60" height="30" as="geometry" />
        </mxCell>
        <mxCell id="JKUWYTQ45FSb9EKCrrsS-63" value="&lt;b&gt;&lt;font color=&quot;#de0202&quot; style=&quot;font-size: 15px;&quot;&gt;y&lt;sub&gt;1&lt;/sub&gt;&lt;/font&gt;&lt;/b&gt;" style="text;html=1;strokeColor=none;fillColor=none;align=center;verticalAlign=middle;whiteSpace=wrap;rounded=0;" parent="1" vertex="1">
          <mxGeometry x="795" y="226" width="60" height="30" as="geometry" />
        </mxCell>
        <mxCell id="JKUWYTQ45FSb9EKCrrsS-64" value="" style="ellipse;whiteSpace=wrap;html=1;aspect=fixed;strokeColor=#FF0000;" parent="1" vertex="1">
          <mxGeometry x="795" y="418" width="10" height="10" as="geometry" />
        </mxCell>
        <mxCell id="JKUWYTQ45FSb9EKCrrsS-65" value="" style="shape=waypoint;sketch=0;fillStyle=solid;size=6;pointerEvents=1;points=[];fillColor=none;resizable=0;rotatable=0;perimeter=centerPerimeter;snapToPoint=1;strokeColor=#e70404;" parent="1" vertex="1">
          <mxGeometry x="790" y="413" width="20" height="20" as="geometry" />
        </mxCell>
        <mxCell id="JKUWYTQ45FSb9EKCrrsS-66" value="&lt;b&gt;&lt;font color=&quot;#de0202&quot; style=&quot;font-size: 15px;&quot;&gt;z&lt;sub&gt;2&lt;/sub&gt;&lt;/font&gt;&lt;/b&gt;" style="text;html=1;strokeColor=none;fillColor=none;align=center;verticalAlign=middle;whiteSpace=wrap;rounded=0;" parent="1" vertex="1">
          <mxGeometry x="755" y="418" width="60" height="30" as="geometry" />
        </mxCell>
        <mxCell id="JKUWYTQ45FSb9EKCrrsS-68" value="" style="shape=cylinder3;whiteSpace=wrap;html=1;boundedLbl=1;backgroundOutline=1;size=15;rotation=-135;" parent="1" vertex="1">
          <mxGeometry x="217" y="102" width="60" height="120" as="geometry" />
        </mxCell>
        <mxCell id="JKUWYTQ45FSb9EKCrrsS-69" value="" style="ellipse;whiteSpace=wrap;html=1;aspect=fixed;gradientColor=none;fillColor=#0d0d0d;" parent="1" vertex="1">
          <mxGeometry x="245" y="157" width="10" height="10" as="geometry" />
        </mxCell>
        <mxCell id="JKUWYTQ45FSb9EKCrrsS-70" value="" style="endArrow=classic;html=1;rounded=0;strokeColor=#eb0505;endSize=9;startSize=10;jumpSize=15;strokeWidth=2;dashed=1;exitX=0;exitY=1;exitDx=0;exitDy=0;" parent="1" source="JKUWYTQ45FSb9EKCrrsS-69" edge="1">
          <mxGeometry width="50" height="50" relative="1" as="geometry">
            <mxPoint x="250" y="170" as="sourcePoint" />
            <mxPoint x="190" y="220" as="targetPoint" />
          </mxGeometry>
        </mxCell>
        <mxCell id="JKUWYTQ45FSb9EKCrrsS-71" value="" style="endArrow=classic;html=1;rounded=0;strokeColor=#eb0505;endSize=9;startSize=10;jumpSize=15;strokeWidth=2;exitX=1;exitY=0.5;exitDx=0;exitDy=0;" parent="1" source="JKUWYTQ45FSb9EKCrrsS-69" edge="1">
          <mxGeometry width="50" height="50" relative="1" as="geometry">
            <mxPoint x="260" y="162" as="sourcePoint" />
            <mxPoint x="325" y="162" as="targetPoint" />
          </mxGeometry>
        </mxCell>
        <mxCell id="JKUWYTQ45FSb9EKCrrsS-72" value="" style="endArrow=classic;html=1;rounded=0;strokeColor=#eb0505;endSize=9;startSize=10;jumpSize=15;strokeWidth=2;exitX=0.5;exitY=0;exitDx=0;exitDy=0;" parent="1" source="JKUWYTQ45FSb9EKCrrsS-69" edge="1">
          <mxGeometry width="50" height="50" relative="1" as="geometry">
            <mxPoint x="245" y="162" as="sourcePoint" />
            <mxPoint x="250" y="97" as="targetPoint" />
          </mxGeometry>
        </mxCell>
        <mxCell id="JKUWYTQ45FSb9EKCrrsS-73" value="&lt;b&gt;&lt;font style=&quot;font-size: 15px;&quot;&gt;A&lt;/font&gt;&lt;/b&gt;" style="text;html=1;strokeColor=none;fillColor=none;align=center;verticalAlign=middle;whiteSpace=wrap;rounded=0;" parent="1" vertex="1">
          <mxGeometry x="210" y="127" width="60" height="30" as="geometry" />
        </mxCell>
        <mxCell id="JKUWYTQ45FSb9EKCrrsS-75" value="" style="ellipse;whiteSpace=wrap;html=1;aspect=fixed;gradientColor=none;fillColor=#0d0d0d;" parent="1" vertex="1">
          <mxGeometry x="448" y="156" width="10" height="10" as="geometry" />
        </mxCell>
        <mxCell id="JKUWYTQ45FSb9EKCrrsS-87" value="&lt;b&gt;&lt;font color=&quot;#de0202&quot; style=&quot;font-size: 15px;&quot;&gt;z&lt;sub&gt;1&lt;/sub&gt;&lt;/font&gt;&lt;/b&gt;" style="text;html=1;strokeColor=none;fillColor=none;align=center;verticalAlign=middle;whiteSpace=wrap;rounded=0;" parent="1" vertex="1">
          <mxGeometry x="157" y="187" width="60" height="30" as="geometry" />
        </mxCell>
        <mxCell id="JKUWYTQ45FSb9EKCrrsS-88" value="&lt;b&gt;&lt;font color=&quot;#de0202&quot; style=&quot;font-size: 15px;&quot;&gt;y&lt;sub&gt;2&lt;/sub&gt;&lt;/font&gt;&lt;/b&gt;" style="text;html=1;strokeColor=none;fillColor=none;align=center;verticalAlign=middle;whiteSpace=wrap;rounded=0;" parent="1" vertex="1">
          <mxGeometry x="400" y="90" width="60" height="30" as="geometry" />
        </mxCell>
        <mxCell id="JKUWYTQ45FSb9EKCrrsS-89" value="&lt;b&gt;&lt;font color=&quot;#de0202&quot; style=&quot;font-size: 15px;&quot;&gt;x&lt;sub&gt;2&lt;/sub&gt;&lt;/font&gt;&lt;/b&gt;" style="text;html=1;strokeColor=none;fillColor=none;align=center;verticalAlign=middle;whiteSpace=wrap;rounded=0;" parent="1" vertex="1">
          <mxGeometry x="473" y="156" width="60" height="30" as="geometry" />
        </mxCell>
        <mxCell id="JKUWYTQ45FSb9EKCrrsS-90" value="" style="endArrow=classic;html=1;rounded=0;strokeColor=#eb0505;endSize=9;startSize=10;jumpSize=15;strokeWidth=2;dashed=1;exitX=0;exitY=1;exitDx=0;exitDy=0;" parent="1" source="JKUWYTQ45FSb9EKCrrsS-75" edge="1">
          <mxGeometry width="50" height="50" relative="1" as="geometry">
            <mxPoint x="457" y="157" as="sourcePoint" />
            <mxPoint x="400" y="210" as="targetPoint" />
          </mxGeometry>
        </mxCell>
        <mxCell id="JKUWYTQ45FSb9EKCrrsS-91" value="" style="endArrow=classic;html=1;rounded=0;strokeColor=#eb0505;endSize=9;startSize=10;jumpSize=15;strokeWidth=2;exitX=1;exitY=0.5;exitDx=0;exitDy=0;" parent="1" edge="1">
          <mxGeometry width="50" height="50" relative="1" as="geometry">
            <mxPoint x="458" y="161" as="sourcePoint" />
            <mxPoint x="528" y="161" as="targetPoint" />
          </mxGeometry>
        </mxCell>
        <mxCell id="JKUWYTQ45FSb9EKCrrsS-92" value="" style="endArrow=classic;html=1;rounded=0;strokeColor=#eb0505;endSize=9;startSize=10;jumpSize=15;strokeWidth=2;exitX=0.5;exitY=0;exitDx=0;exitDy=0;" parent="1" edge="1">
          <mxGeometry width="50" height="50" relative="1" as="geometry">
            <mxPoint x="453" y="156" as="sourcePoint" />
            <mxPoint x="453" y="96" as="targetPoint" />
          </mxGeometry>
        </mxCell>
        <mxCell id="JKUWYTQ45FSb9EKCrrsS-93" value="&lt;b&gt;&lt;font color=&quot;#de0202&quot; style=&quot;font-size: 15px;&quot;&gt;z&lt;sub&gt;2&lt;/sub&gt;&lt;/font&gt;&lt;/b&gt;" style="text;html=1;strokeColor=none;fillColor=none;align=center;verticalAlign=middle;whiteSpace=wrap;rounded=0;" parent="1" vertex="1">
          <mxGeometry x="361" y="186" width="60" height="30" as="geometry" />
        </mxCell>
        <mxCell id="JKUWYTQ45FSb9EKCrrsS-100" value="" style="endArrow=none;html=1;rounded=0;strokeWidth=1;strokeColor=#bcb9b9;" parent="1" edge="1">
          <mxGeometry width="50" height="50" relative="1" as="geometry">
            <mxPoint x="341" y="160" as="sourcePoint" />
            <mxPoint x="370" y="100" as="targetPoint" />
          </mxGeometry>
        </mxCell>
        <mxCell id="JKUWYTQ45FSb9EKCrrsS-101" value="&lt;b&gt;&lt;font color=&quot;#919191&quot; style=&quot;font-size: 15px;&quot;&gt;2&lt;br&gt;&lt;/font&gt;&lt;/b&gt;" style="text;html=1;strokeColor=none;fillColor=none;align=center;verticalAlign=middle;whiteSpace=wrap;rounded=0;" parent="1" vertex="1">
          <mxGeometry x="350" y="85" width="60" height="30" as="geometry" />
        </mxCell>
        <mxCell id="JKUWYTQ45FSb9EKCrrsS-115" value="&lt;b&gt;&lt;font color=&quot;#de0202&quot; style=&quot;font-size: 15px;&quot;&gt;z&lt;sub&gt;1&lt;/sub&gt;&lt;/font&gt;&lt;/b&gt;" style="text;html=1;strokeColor=none;fillColor=none;align=center;verticalAlign=middle;whiteSpace=wrap;rounded=0;" parent="1" vertex="1">
          <mxGeometry x="755" y="408" width="60" height="30" as="geometry" />
        </mxCell>
        <mxCell id="JKUWYTQ45FSb9EKCrrsS-116" value="&lt;b&gt;&lt;font color=&quot;#de0202&quot; style=&quot;font-size: 15px;&quot;&gt;x&lt;sub&gt;1&lt;/sub&gt;&lt;/font&gt;&lt;/b&gt;" style="text;html=1;strokeColor=none;fillColor=none;align=center;verticalAlign=middle;whiteSpace=wrap;rounded=0;" parent="1" vertex="1">
          <mxGeometry x="964" y="409" width="60" height="30" as="geometry" />
        </mxCell>
        <mxCell id="ddFWw4QYxO7jGtvk19kT-2" value="&lt;b style=&quot;&quot;&gt;&lt;font color=&quot;#1c02de&quot;&gt;θ&lt;span style=&quot;font-size: 15px;&quot;&gt;&lt;sub style=&quot;&quot;&gt;2&lt;/sub&gt;&lt;/span&gt;&lt;/font&gt;&lt;/b&gt;" style="text;html=1;strokeColor=none;fillColor=none;align=center;verticalAlign=middle;whiteSpace=wrap;rounded=0;" vertex="1" parent="1">
          <mxGeometry x="255" y="115" width="60" height="30" as="geometry" />
        </mxCell>
        <mxCell id="ddFWw4QYxO7jGtvk19kT-3" value="" style="curved=1;endArrow=classic;html=1;rounded=0;strokeColor=#020aed;" edge="1" parent="1">
          <mxGeometry width="50" height="50" relative="1" as="geometry">
            <mxPoint x="271.5" y="155" as="sourcePoint" />
            <mxPoint x="266.5" y="135" as="targetPoint" />
            <Array as="points">
              <mxPoint x="276.5" y="145" />
            </Array>
          </mxGeometry>
        </mxCell>
      </root>
    </mxGraphModel>
  </diagram>
</mxfile>
